<svg version="1.1" id="Layer_1" xmlns="http://www.w3.org/2000/svg" xmlns:xlink="http://www.w3.org/1999/xlink" x="0px" y="0px"
	 width="100%" viewBox="0 0 512 512" enable-background="new 0 0 512 512" xml:space="preserve">
<path fill="#000000" opacity="1.000000" stroke="none" 
	d="
M285.000000,513.000000 
	C190.023056,513.000000 95.546112,513.000000 1.034582,513.000000 
	C1.034582,342.398041 1.034582,171.796051 1.034582,1.097036 
	C171.560287,1.097036 342.120667,1.097036 512.840515,1.097036 
	C512.840515,171.666550 512.840515,342.333252 512.840515,513.000000 
	C437.129364,513.000000 361.314667,513.000000 285.000000,513.000000 
M267.697632,483.826538 
	C276.143799,474.640625 284.664734,465.521210 292.956299,456.197754 
	C294.211761,454.786072 294.948425,452.438324 294.993744,450.501770 
	C295.297485,437.523010 295.355316,424.538391 295.478058,411.555542 
	C295.507935,408.394501 295.482513,405.232941 295.482513,400.840271 
	C285.408691,409.749146 276.173523,417.916321 266.325592,425.811646 
	C257.214050,417.823029 248.102524,409.834442 238.243774,401.190704 
	C238.243774,419.002045 238.202118,435.453705 238.323288,451.904175 
	C238.332932,453.211182 239.203125,454.750366 240.125580,455.774292 
	C247.259140,463.692200 254.469772,471.541809 261.741516,479.333282 
	C263.334473,481.040070 265.268066,482.428925 267.697632,483.826538 
M266.388641,361.834686 
	C257.163849,354.034332 247.939056,346.233978 238.239639,338.032318 
	C238.239639,355.460938 238.187943,371.907959 238.329559,388.353302 
	C238.342026,389.799194 239.331177,391.494354 240.356262,392.632965 
	C248.253296,401.404388 256.240936,410.095245 264.299500,418.718567 
	C265.088043,419.562347 266.543915,419.782471 268.166565,419.725342 
	C276.255646,410.908539 284.436310,402.172546 292.351196,393.202026 
	C293.812683,391.545563 294.903870,388.961395 294.966827,386.770935 
	C295.334656,373.978058 295.319092,361.174561 295.494476,348.375488 
	C295.540771,344.997101 295.804443,341.621735 296.035980,336.850586 
	C285.657074,345.894897 276.326324,354.025879 266.388641,361.834686 
M158.946976,92.505760 
	C158.653397,92.378464 158.359802,92.251175 157.449432,91.891815 
	C157.044388,92.919403 156.182541,94.017097 156.327301,94.960304 
	C156.650711,97.067696 157.641296,99.064240 158.071075,101.165070 
	C161.966232,120.205208 165.825180,139.252914 169.601196,158.316925 
	C169.906403,159.857849 169.951630,161.711899 169.380829,163.122238 
	C165.662674,172.309448 161.661407,181.381668 157.902542,190.552902 
	C150.588547,208.398224 143.358017,226.277847 136.134460,244.160049 
	C135.140289,246.621140 134.437225,248.603882 137.449875,250.946899 
	C161.355225,269.538696 185.027420,288.429932 208.808273,307.182190 
	C224.477386,319.538025 240.207901,331.815948 256.197601,344.657074 
	C257.399261,345.525269 258.600891,346.393463 259.802551,347.261627 
	C253.927292,335.621704 247.429993,324.711151 240.923615,313.805969 
	C232.354187,299.442963 224.574142,284.524048 214.979874,270.881287 
	C205.403641,257.264221 193.970261,244.957062 183.476944,231.973862 
	C182.615036,230.907455 182.141571,228.921646 182.459595,227.596237 
	C189.107452,199.890320 195.933701,172.227173 202.560822,144.516388 
	C202.954224,142.871414 202.555603,140.414993 201.523148,139.162445 
	C197.748337,134.582932 193.540558,130.361099 189.510880,125.990700 
	C179.349289,114.969963 169.195862,103.941711 159.019485,92.985329 
	C159.019485,92.985329 159.088501,93.004440 158.946976,92.505760 
M275.105896,345.305420 
	C276.722351,343.870361 278.338837,342.435272 280.652466,340.971466 
	C281.076447,340.709839 281.531860,340.487946 281.919983,340.180969 
	C319.798584,310.220276 357.642303,280.215210 395.611084,250.369278 
	C398.222839,248.316269 396.961975,246.789886 396.227448,244.918732 
	C393.454926,237.856186 390.649963,230.806213 387.822693,223.765366 
	C380.187378,204.750778 372.466003,185.770203 364.960724,166.704498 
	C363.813049,163.789001 362.597778,160.288910 363.167908,157.406097 
	C367.357361,136.221481 371.960907,115.118149 376.524811,94.008835 
	C377.173096,91.010376 376.016663,91.139626 373.302704,92.222572 
	C365.702698,100.469017 358.081696,108.696220 350.509033,116.967712 
	C343.831360,124.261688 337.132294,131.539520 330.643127,138.998871 
	C329.690399,140.094055 329.235168,142.303055 329.583069,143.747864 
	C336.248749,171.430298 343.089752,199.070465 349.800415,226.742218 
	C350.158905,228.220474 350.291199,230.355698 349.497345,231.403885 
	C346.551941,235.292709 343.046509,238.751373 339.984741,242.559189 
	C332.514954,251.849030 324.299011,260.688782 317.957794,270.706299 
	C302.582489,294.995422 288.104279,319.852448 272.996155,344.995209 
	C273.498383,345.187073 274.000641,345.378937 275.105896,345.305420 
M277.073334,107.277397 
	C274.034363,93.907883 270.995422,80.538376 267.956451,67.168861 
	C267.765594,67.232185 267.574738,67.295502 267.383881,67.358826 
	C267.383881,160.473251 267.383881,253.587677 267.383881,347.110413 
	C267.996155,346.467377 268.279114,346.265594 268.436188,345.991638 
	C283.247833,320.157990 298.084839,294.338562 312.763245,268.429352 
	C313.615784,266.924500 313.674744,264.573517 313.267456,262.809174 
	C301.357605,211.216354 289.341400,159.648071 277.073334,107.277397 
M219.431808,260.789886 
	C219.540543,263.421387 218.759720,266.544037 219.898666,268.606689 
	C229.047256,285.175049 238.559662,301.542480 247.957382,317.973328 
	C253.351746,327.404724 258.739716,336.839813 264.737946,347.336060 
	C264.737946,253.004059 264.737946,159.989563 264.737946,65.885735 
	C258.461212,93.237915 252.482513,119.508453 246.398041,145.754471 
	C237.563629,183.862518 228.652847,221.952881 219.431808,260.789886 
z"/>
<path fill="#0052AE" opacity="1.000000" stroke="none" 
	d="
M277.207764,107.676636 
	C289.341400,159.648071 301.357605,211.216354 313.267456,262.809174 
	C313.674744,264.573517 313.615784,266.924500 312.763245,268.429352 
	C298.084839,294.338562 283.247833,320.157990 268.436188,345.991638 
	C268.279114,346.265594 267.996155,346.467377 267.383881,347.110413 
	C267.383881,253.587677 267.383881,160.473251 267.383881,67.358826 
	C267.574738,67.295502 267.765594,67.232185 267.956451,67.168861 
	C270.995422,80.538376 274.034363,93.907883 277.207764,107.676636 
z"/>
<path fill="#2389FE" opacity="1.000000" stroke="none" 
	d="
M219.603226,260.420349 
	C228.652847,221.952881 237.563629,183.862518 246.398041,145.754471 
	C252.482513,119.508453 258.461212,93.237915 264.737946,65.885735 
	C264.737946,159.989563 264.737946,253.004059 264.737946,347.336060 
	C258.739716,336.839813 253.351746,327.404724 247.957382,317.973328 
	C238.559662,301.542480 229.047256,285.175049 219.898666,268.606689 
	C218.759720,266.544037 219.540543,263.421387 219.603226,260.420349 
z"/>
<path fill="#2658A2" opacity="1.000000" stroke="none" 
	d="
M255.910904,344.128754 
	C240.207901,331.815948 224.477386,319.538025 208.808273,307.182190 
	C185.027420,288.429932 161.355225,269.538696 137.449875,250.946899 
	C134.437225,248.603882 135.140289,246.621140 136.134460,244.160049 
	C143.358017,226.277847 150.588547,208.398224 157.902542,190.552902 
	C161.661407,181.381668 165.662674,172.309448 169.380829,163.122238 
	C169.951630,161.711899 169.906403,159.857849 169.601196,158.316925 
	C165.825180,139.252914 161.966232,120.205208 158.071075,101.165070 
	C157.641296,99.064240 156.650711,97.067696 156.327301,94.960304 
	C156.182541,94.017097 157.044388,92.919403 157.861572,92.219315 
	C158.506638,92.768204 158.778229,92.920746 159.088501,93.004440 
	C159.088501,93.004440 159.019485,92.985329 158.980530,93.330994 
	C159.730316,95.677444 160.390686,97.740616 161.328110,99.669113 
	C168.680145,114.793640 175.936386,129.968185 183.566818,144.951782 
	C185.788666,149.314743 185.965485,153.180023 184.576889,157.786667 
	C176.987869,182.962891 169.686447,208.225723 162.187866,233.429520 
	C161.343063,236.269043 161.698578,238.226334 163.790451,240.536682 
	C190.830627,270.400848 217.770798,300.355743 244.659958,330.356140 
	C248.612381,334.765900 252.170395,339.529083 255.910904,344.128754 
z"/>
<path fill="#2658A2" opacity="1.000000" stroke="none" 
	d="
M373.972321,92.089500 
	C376.016663,91.139626 377.173096,91.010376 376.524811,94.008835 
	C371.960907,115.118149 367.357361,136.221481 363.167908,157.406097 
	C362.597778,160.288910 363.813049,163.789001 364.960724,166.704498 
	C372.466003,185.770203 380.187378,204.750778 387.822693,223.765366 
	C390.649963,230.806213 393.454926,237.856186 396.227448,244.918732 
	C396.961975,246.789886 398.222839,248.316269 395.611084,250.369278 
	C357.642303,280.215210 319.798584,310.220276 281.919983,340.180969 
	C281.531860,340.487946 281.076447,340.709839 280.274231,340.625488 
	C281.012390,338.650177 281.960571,336.869690 283.269806,335.413879 
	C311.545685,303.972595 339.835754,272.543884 368.216827,241.197678 
	C370.645691,238.515045 371.110748,236.080505 370.077820,232.635254 
	C362.335449,206.810852 354.698364,180.953857 347.285614,155.033463 
	C346.599945,152.635849 347.005157,149.395554 348.088654,147.107712 
	C355.856384,130.706604 363.954803,114.462395 371.876007,98.133354 
	C372.800232,96.228111 373.284241,94.109299 373.972321,92.089500 
z"/>
<path fill="#2389FD" opacity="1.000000" stroke="none" 
	d="
M373.637512,92.156036 
	C373.284241,94.109299 372.800232,96.228111 371.876007,98.133354 
	C363.954803,114.462395 355.856384,130.706604 348.088654,147.107712 
	C347.005157,149.395554 346.599945,152.635849 347.285614,155.033463 
	C354.698364,180.953857 362.335449,206.810852 370.077820,232.635254 
	C371.110748,236.080505 370.645691,238.515045 368.216827,241.197678 
	C339.835754,272.543884 311.545685,303.972595 283.269806,335.413879 
	C281.960571,336.869690 281.012390,338.650177 279.925659,340.639832 
	C278.338837,342.435272 276.722351,343.870361 274.502014,345.157379 
	C273.686951,344.833069 273.475769,344.656830 273.264587,344.480621 
	C288.104279,319.852448 302.582489,294.995422 317.957794,270.706299 
	C324.299011,260.688782 332.514954,251.849030 339.984741,242.559189 
	C343.046509,238.751373 346.551941,235.292709 349.497345,231.403885 
	C350.291199,230.355698 350.158905,228.220474 349.800415,226.742218 
	C343.089752,199.070465 336.248749,171.430298 329.583069,143.747864 
	C329.235168,142.303055 329.690399,140.094055 330.643127,138.998871 
	C337.132294,131.539520 343.831360,124.261688 350.509033,116.967712 
	C358.081696,108.696220 365.702698,100.469017 373.637512,92.156036 
z"/>
<path fill="#2389FD" opacity="1.000000" stroke="none" 
	d="
M256.054260,344.392914 
	C252.170395,339.529083 248.612381,334.765900 244.659958,330.356140 
	C217.770798,300.355743 190.830627,270.400848 163.790451,240.536682 
	C161.698578,238.226334 161.343063,236.269043 162.187866,233.429520 
	C169.686447,208.225723 176.987869,182.962891 184.576889,157.786667 
	C185.965485,153.180023 185.788666,149.314743 183.566818,144.951782 
	C175.936386,129.968185 168.680145,114.793640 161.328110,99.669113 
	C160.390686,97.740616 159.730316,95.677444 158.990387,93.296570 
	C169.195862,103.941711 179.349289,114.969963 189.510880,125.990700 
	C193.540558,130.361099 197.748337,134.582932 201.523148,139.162445 
	C202.555603,140.414993 202.954224,142.871414 202.560822,144.516388 
	C195.933701,172.227173 189.107452,199.890320 182.459595,227.596237 
	C182.141571,228.921646 182.615036,230.907455 183.476944,231.973862 
	C193.970261,244.957062 205.403641,257.264221 214.979874,270.881287 
	C224.574142,284.524048 232.354187,299.442963 240.923615,313.805969 
	C247.429993,324.711151 253.927292,335.621704 259.802551,347.261627 
	C258.600891,346.393463 257.399261,345.525269 256.054260,344.392914 
z"/>
<path fill="#0052AE" opacity="1.000000" stroke="none" 
	d="
M267.690063,420.292053 
	C266.543915,419.782471 265.088043,419.562347 264.299500,418.718567 
	C256.240936,410.095245 248.253296,401.404388 240.356262,392.632965 
	C239.331177,391.494354 238.342026,389.799194 238.329559,388.353302 
	C238.187943,371.907959 238.239639,355.460938 238.239639,338.032318 
	C247.939056,346.233978 257.163849,354.034332 266.684082,362.453308 
	C266.976349,380.370422 266.952301,397.668945 267.001556,414.967255 
	C267.006592,416.742828 267.450043,418.517151 267.690063,420.292053 
z"/>
<path fill="#0051AE" opacity="1.000000" stroke="none" 
	d="
M267.044800,483.964203 
	C265.268066,482.428925 263.334473,481.040070 261.741516,479.333282 
	C254.469772,471.541809 247.259140,463.692200 240.125580,455.774292 
	C239.203125,454.750366 238.332932,453.211182 238.323288,451.904175 
	C238.202118,435.453705 238.243774,419.002045 238.243774,401.190704 
	C248.102524,409.834442 257.214050,417.823029 266.647278,426.408966 
	C266.994232,445.992249 267.019501,464.978241 267.044800,483.964203 
z"/>
<path fill="#77B6FE" opacity="1.000000" stroke="none" 
	d="
M267.371216,483.895386 
	C267.019501,464.978241 266.994232,445.992249 266.953674,426.544891 
	C276.173523,417.916321 285.408691,409.749146 295.482513,400.840271 
	C295.482513,405.232941 295.507935,408.394501 295.478058,411.555542 
	C295.355316,424.538391 295.297485,437.523010 294.993744,450.501770 
	C294.948425,452.438324 294.211761,454.786072 292.956299,456.197754 
	C284.664734,465.521210 276.143799,474.640625 267.371216,483.895386 
z"/>
<path fill="#78B6FE" opacity="1.000000" stroke="none" 
	d="
M267.928314,420.008698 
	C267.450043,418.517151 267.006592,416.742828 267.001556,414.967255 
	C266.952301,397.668945 266.976349,380.370422 266.987549,362.614380 
	C276.326324,354.025879 285.657074,345.894897 296.035980,336.850586 
	C295.804443,341.621735 295.540771,344.997101 295.494476,348.375488 
	C295.319092,361.174561 295.334656,373.978058 294.966827,386.770935 
	C294.903870,388.961395 293.812683,391.545563 292.351196,393.202026 
	C284.436310,402.172546 276.255646,410.908539 267.928314,420.008698 
z"/>
<path fill="#2389FD" opacity="1.000000" stroke="none" 
	d="
M159.017731,92.755096 
	C158.778229,92.920746 158.506638,92.768204 158.169952,92.335350 
	C158.359802,92.251175 158.653397,92.378464 159.017731,92.755096 
z"/>
<path fill="#2389FD" opacity="1.000000" stroke="none" 
	d="
M274.200500,345.290039 
	C274.000641,345.378937 273.498383,345.187073 273.130371,344.737915 
	C273.475769,344.656830 273.686951,344.833069 274.200500,345.290039 
z"/>
</svg>